HIERARCHY
ROOT Bone
{
	OFFSET 0.000000 0.000000 0.000000
	CHANNELS 6 Xposition Yposition Zposition Xrotation Yrotation Zrotation
	JOINT Bone.001
	{
		OFFSET 0.000000 0.000000 0.113410
		CHANNELS 3 Xrotation Yrotation Zrotation
		JOINT Bone.002
		{
			OFFSET 0.009195 0.000000 0.098084
			CHANNELS 3 Xrotation Yrotation Zrotation
			JOINT Bone.003
			{
				OFFSET 0.015326 0.000000 0.098084
				CHANNELS 3 Xrotation Yrotation Zrotation
				JOINT Bone.004
				{
					OFFSET 0.012261 0.000000 0.098084
					CHANNELS 3 Xrotation Yrotation Zrotation
					JOINT Bone.005
					{
						OFFSET 0.012261 0.000000 0.098084
						CHANNELS 3 Xrotation Yrotation Zrotation
						JOINT Bone.006
						{
							OFFSET 0.006130 0.000000 0.098084
							CHANNELS 3 Xrotation Yrotation Zrotation
							JOINT Bone.007
							{
								OFFSET 0.006130 0.000000 0.098084
								CHANNELS 3 Xrotation Yrotation Zrotation
								End Site
								{
									OFFSET 0.009195 0.000000 0.098084
								}
							}
						}
					}
				}
			}
		}
	}
}
MOTION
Frames: 36
Frame Time: 0.041667
0.000000 0.000000 0.000000 0.000000 -69.623565 0.000000 0.000000 -0.839780 0.000000 0.000000 23.077401 0.000000 0.000000 14.557402 0.000000 0.000000 2.687156 0.000000 0.000000 1.401590 0.000000 0.000000 1.440223 0.000000 0.000000 -2.841813 0.000000 
0.000000 0.000000 0.000000 0.000000 -70.463345 0.000000 0.000000 0.000000 0.000000 0.000000 16.992200 0.000000 0.000000 20.642603 0.000000 0.000000 2.687156 0.000000 0.000000 1.401590 0.000000 0.000000 0.000000 0.000000 0.000000 0.000000 0.000000 
0.000000 0.000000 0.000000 0.000000 -71.565051 0.000000 0.000000 1.101706 0.000000 0.000000 16.992200 0.000000 0.000000 20.642603 0.000000 0.000000 1.324275 0.000000 0.000000 2.764471 0.000000 0.000000 0.000000 0.000000 0.000000 0.000000 0.000000 
0.000000 0.000000 0.000000 0.000000 -72.121303 0.000000 0.000000 2.257607 0.000000 0.000000 16.021882 0.000000 0.000000 20.151747 0.000000 0.000000 4.151285 0.000000 0.000000 0.000000 0.000000 0.000000 1.466295 0.000000 0.000000 -1.466295 0.000000 
0.000000 0.000000 0.000000 0.000000 -72.121303 0.000000 0.000000 2.257607 0.000000 0.000000 16.021882 0.000000 0.000000 20.151747 0.000000 0.000000 4.151285 0.000000 0.000000 0.000000 0.000000 0.000000 1.466295 0.000000 0.000000 -1.466295 0.000000 
0.000000 0.000000 0.000000 0.000000 -70.463345 0.000000 0.000000 -0.511049 0.000000 0.000000 18.209228 0.000000 0.000000 20.937719 0.000000 0.000000 1.448321 0.000000 0.000000 3.029250 0.000000 0.000000 0.000000 0.000000 0.000000 0.000000 0.000000 
0.000000 0.000000 0.000000 0.000000 -70.463345 0.000000 0.000000 -0.511049 0.000000 0.000000 19.634202 0.000000 0.000000 19.512745 0.000000 0.000000 2.940865 0.000000 0.000000 1.536706 0.000000 0.000000 0.000000 0.000000 0.000000 0.000000 0.000000 
0.000000 0.000000 0.000000 0.000000 -72.072080 0.000000 0.000000 1.097686 0.000000 0.000000 24.701364 0.000000 0.000000 14.445583 0.000000 0.000000 2.940865 0.000000 0.000000 3.117254 0.000000 0.000000 0.000000 0.000000 0.000000 -1.580548 0.000000 
0.000000 0.000000 0.000000 0.000000 -72.072080 0.000000 0.000000 1.097686 0.000000 0.000000 24.701364 0.000000 0.000000 14.445583 0.000000 0.000000 2.940865 0.000000 0.000000 3.117254 0.000000 0.000000 0.000000 0.000000 0.000000 -1.580548 0.000000 
0.000000 0.000000 0.000000 0.000000 -70.974394 0.000000 0.000000 0.000000 0.000000 0.000000 19.634202 0.000000 0.000000 19.512745 0.000000 0.000000 2.940865 0.000000 0.000000 1.536706 0.000000 0.000000 1.580548 0.000000 0.000000 -1.580548 0.000000 
0.000000 0.000000 0.000000 0.000000 -53.130102 0.000000 0.000000 -0.711712 0.000000 0.000000 0.000000 0.000000 0.000000 2.501623 0.000000 0.000000 23.039436 0.000000 0.000000 1.735705 0.000000 0.000000 0.000000 0.000000 0.000000 -1.735705 0.000000 
0.000000 0.000000 0.000000 0.000000 -69.443955 0.000000 0.000000 -0.902221 0.000000 0.000000 25.346176 0.000000 0.000000 15.255119 0.000000 0.000000 0.000000 0.000000 0.000000 3.179830 0.000000 0.000000 0.000000 0.000000 0.000000 -3.179830 0.000000 
0.000000 0.000000 0.000000 0.000000 -68.552264 0.000000 0.000000 0.000000 0.000000 0.000000 18.111932 0.000000 0.000000 20.695451 0.000000 0.000000 1.566291 0.000000 0.000000 1.613539 0.000000 0.000000 0.000000 0.000000 0.000000 0.000000 0.000000 
0.000000 0.000000 0.000000 0.000000 -38.367485 0.000000 0.000000 -1.438086 0.000000 0.000000 1.438086 0.000000 0.000000 -1.438086 0.000000 0.000000 1.438086 0.000000 0.000000 -1.438086 0.000000 0.000000 1.438086 0.000000 0.000000 3.056272 0.000000 
0.000000 0.000000 0.000000 0.000000 -68.198591 0.000000 0.000000 0.678025 0.000000 0.000000 23.793596 0.000000 0.000000 16.377094 0.000000 0.000000 0.000000 0.000000 0.000000 3.204334 0.000000 0.000000 0.000000 0.000000 0.000000 0.000000 0.000000 
0.000000 0.000000 0.000000 0.000000 -68.198591 0.000000 0.000000 1.397181 0.000000 0.000000 21.801409 0.000000 0.000000 16.821410 0.000000 0.000000 3.273821 0.000000 0.000000 0.000000 0.000000 0.000000 0.000000 0.000000 0.000000 1.706178 0.000000 
0.000000 0.000000 0.000000 0.000000 -66.571307 0.000000 0.000000 -0.230102 0.000000 0.000000 21.801409 0.000000 0.000000 18.434949 0.000000 0.000000 1.660282 0.000000 0.000000 0.000000 0.000000 0.000000 0.000000 0.000000 0.000000 1.706178 0.000000 
0.000000 0.000000 0.000000 0.000000 -65.854458 0.000000 0.000000 1.564412 0.000000 0.000000 16.427641 0.000000 0.000000 20.454830 0.000000 0.000000 3.445086 0.000000 0.000000 0.000000 0.000000 0.000000 -1.747465 0.000000 0.000000 1.747465 0.000000 
0.000000 0.000000 0.000000 0.000000 -43.781125 0.000000 0.000000 -1.218875 0.000000 0.000000 1.218875 0.000000 0.000000 0.000000 0.000000 0.000000 8.469911 0.000000 0.000000 10.687649 0.000000 0.000000 0.000000 0.000000 0.000000 2.003700 0.000000 
0.000000 0.000000 0.000000 0.000000 -64.230672 0.000000 0.000000 0.795724 0.000000 0.000000 22.619865 0.000000 0.000000 14.250033 0.000000 0.000000 5.117315 0.000000 0.000000 -3.457032 0.000000 0.000000 1.706178 0.000000 0.000000 -1.706178 0.000000 
0.000000 0.000000 0.000000 0.000000 -64.179008 0.000000 0.000000 0.744059 0.000000 0.000000 26.565051 0.000000 0.000000 13.671307 0.000000 0.000000 0.000000 0.000000 0.000000 0.000000 0.000000 0.000000 1.750854 0.000000 0.000000 -1.750854 0.000000 
0.000000 0.000000 0.000000 0.000000 -35.311213 0.000000 0.000000 0.000000 0.000000 0.000000 0.000000 0.000000 0.000000 0.000000 0.000000 0.000000 1.621146 0.000000 0.000000 -1.621146 0.000000 0.000000 0.000000 0.000000 0.000000 1.621146 0.000000 
0.000000 0.000000 0.000000 0.000000 -62.020526 0.000000 0.000000 -1.414423 0.000000 0.000000 33.453309 0.000000 0.000000 5.076871 0.000000 0.000000 3.457032 0.000000 0.000000 0.000000 0.000000 0.000000 0.000000 0.000000 0.000000 -1.750854 0.000000 
0.000000 0.000000 0.000000 0.000000 -60.642246 0.000000 0.000000 -1.950178 0.000000 0.000000 32.610785 0.000000 0.000000 7.815294 0.000000 0.000000 0.000000 0.000000 0.000000 1.843209 0.000000 0.000000 -1.843209 0.000000 0.000000 -1.796143 0.000000 
0.000000 0.000000 0.000000 0.000000 -59.036243 0.000000 0.000000 -1.218875 0.000000 0.000000 32.847543 0.000000 0.000000 5.959839 0.000000 0.000000 0.000000 0.000000 0.000000 0.000000 0.000000 0.000000 0.000000 0.000000 0.000000 0.000000 0.000000 
0.000000 0.000000 0.000000 0.000000 -40.601295 0.000000 0.000000 -0.746483 0.000000 0.000000 0.000000 0.000000 0.000000 5.593890 0.000000 0.000000 15.955011 0.000000 0.000000 0.000000 0.000000 0.000000 0.000000 0.000000 0.000000 -3.950618 0.000000 
0.000000 0.000000 0.000000 0.000000 -57.094757 0.000000 0.000000 5.754565 0.000000 0.000000 29.892455 0.000000 0.000000 0.000000 0.000000 0.000000 1.793912 0.000000 0.000000 0.000000 0.000000 0.000000 0.000000 0.000000 0.000000 -1.793912 0.000000 
0.000000 0.000000 0.000000 0.000000 -58.172553 0.000000 0.000000 4.701409 0.000000 0.000000 32.698890 0.000000 0.000000 0.000000 0.000000 0.000000 1.746649 0.000000 0.000000 0.000000 0.000000 0.000000 0.000000 0.000000 0.000000 -3.453828 0.000000 
0.000000 0.000000 0.000000 0.000000 -58.172553 0.000000 0.000000 4.701409 0.000000 0.000000 32.698890 0.000000 0.000000 0.000000 0.000000 0.000000 1.746649 0.000000 0.000000 0.000000 0.000000 0.000000 0.000000 0.000000 0.000000 -3.453828 0.000000 
0.000000 0.000000 0.000000 0.000000 -54.293309 0.000000 0.000000 8.020279 0.000000 0.000000 26.619206 0.000000 0.000000 0.000000 0.000000 0.000000 0.000000 0.000000 0.000000 1.834935 0.000000 0.000000 -1.834935 0.000000 0.000000 -1.793912 0.000000 
0.000000 0.000000 0.000000 0.000000 -53.130102 0.000000 0.000000 10.732665 0.000000 0.000000 20.949701 0.000000 0.000000 3.628847 0.000000 0.000000 -1.834935 0.000000 0.000000 1.834935 0.000000 0.000000 -1.834935 0.000000 0.000000 -3.544766 0.000000 
0.000000 0.000000 0.000000 0.000000 -51.842773 0.000000 0.000000 8.061649 0.000000 0.000000 24.127301 0.000000 0.000000 0.000000 0.000000 0.000000 1.834935 0.000000 0.000000 0.000000 0.000000 0.000000 -1.834935 0.000000 0.000000 -3.544766 0.000000 
0.000000 0.000000 0.000000 0.000000 -51.842773 0.000000 0.000000 8.061649 0.000000 0.000000 24.127301 0.000000 0.000000 0.000000 0.000000 0.000000 1.834935 0.000000 0.000000 0.000000 0.000000 0.000000 -1.834935 0.000000 0.000000 -3.544766 0.000000 
0.000000 0.000000 0.000000 0.000000 -50.013114 0.000000 0.000000 14.259227 0.000000 0.000000 17.318938 0.000000 0.000000 0.000000 0.000000 0.000000 1.930587 0.000000 0.000000 0.000000 0.000000 0.000000 -1.930587 0.000000 0.000000 -5.527540 0.000000 
0.000000 0.000000 0.000000 0.000000 -48.366461 0.000000 0.000000 9.706652 0.000000 0.000000 20.224859 0.000000 0.000000 3.900494 0.000000 0.000000 -3.900494 0.000000 0.000000 3.900494 0.000000 0.000000 -3.900494 0.000000 0.000000 -3.731397 0.000000 
0.000000 0.000000 0.000000 0.000000 -47.121096 0.000000 0.000000 12.425943 0.000000 0.000000 16.260205 0.000000 0.000000 3.900494 0.000000 0.000000 -1.969906 0.000000 0.000000 0.000000 0.000000 0.000000 1.969906 0.000000 0.000000 -9.428034 0.000000 
